# xmcd
#
# Track frame offsets:
# 150
# 10537
# 21675
# 37295
# 51185
# 62562
# 72400
# 84175
# 94525
# 108750
# 119215
# 132465
#
# Disc length: 1931 seconds
#
#
# Revision: 0
# Processed by: cddbd v1.4PL0 Copyright (c) Steve Scherf et al.
# Submitted via: FreeRIP 2.40 
#
DISCID=a507890c
DTITLE=Dave Dudley - Country Best
DYEAR=1900
DGENRE=Country
TTITLE0=John Henry No. 2
TTITLE1=I'm Goin' Home
TTITLE2=I'm Single Again
TTITLE3=The Waterin' Hole
TTITLE4=Rovin' Gambler
TTITLE5=A Place In The Sun
TTITLE6=Yellow Rose Of Texas
TTITLE7=Charlie's Shoes
TTITLE8=Soldiers Spouse Lament
TTITLE9=Six Days On The Road
TTITLE10=Lookin' South
TTITLE11=Now And Then
EXTD=
EXTT0=
EXTT1=
EXTT2=
EXTT3=
EXTT4=
EXTT5=
EXTT6=
EXTT7=
EXTT8=
EXTT9=
EXTT10=
EXTT11=
PLAYORDER=
